<svg xmlns="http://www.w3.org/2000/svg" viewBox="0 0 1280 720" width="1280" height="720" font-family="Arial, 'Helvetica Neue', Helvetica, sans-serif"><rect x="0" y="0" width="1280" height="720" fill="#0B1B2B"/><rect x="64" y="52" width="5" height="26" rx="2" fill="#4C9BE8"/><text x="82" y="72" font-family="Arial, 'Helvetica Neue', Helvetica, sans-serif" font-size="15" fill="#9DB3C8" font-weight="700" text-anchor="start" letter-spacing="2.5">METHOD</text><text x="64" y="110" font-family="Arial, 'Helvetica Neue', Helvetica, sans-serif" font-size="30" fill="#EAF2FB" font-weight="800" text-anchor="start">Same model, only the highlighted tokens differ</text><g id="cue_s05_c1_under_hood_all_three_tools"><title>under hood all three tools used very same codex any</title><rect x="64" y="158" width="1152" height="190" rx="14" fill="#12293D" stroke="#26455F" stroke-width="1.5"/><rect x="64" y="158" width="6" height="190" rx="6" fill="#4C9BE8"/><text x="92" y="194" font-family="Arial, 'Helvetica Neue', Helvetica, sans-serif" font-size="16.5" fill="#4C9BE8" font-weight="800" text-anchor="start">One Codex model, three displays</text><text x="92" y="222" font-family="Arial, 'Helvetica Neue', Helvetica, sans-serif" font-size="13.5" fill="#9DB3C8" font-weight="400" text-anchor="start">All three tools use the very same Codex model, so any difference in behavior comes purely from how the</text><text x="92" y="241" font-family="Arial, 'Helvetica Neue', Helvetica, sans-serif" font-size="13.5" fill="#9DB3C8" font-weight="400" text-anchor="start">completion is displayed.</text><rect x="92" y="250" width="1096" height="96" rx="10" fill="#0E2334" stroke="#26455F" stroke-width="1.5"/><rect x="110" y="269.0" width="118" height="58" rx="8" fill="#16324A" stroke="#4C9BE8" stroke-width="1.8"/><text x="169.0" y="297.0" font-family="Arial, 'Helvetica Neue', Helvetica, sans-serif" font-size="16" fill="#4C9BE8" font-weight="800" text-anchor="middle">Codex</text><text x="169.0" y="314.0" font-family="Arial, 'Helvetica Neue', Helvetica, sans-serif" font-size="10" fill="#9DB3C8" font-weight="600" text-anchor="middle">one shared model</text><line x1="230" y1="298.0" x2="274" y2="268.0" stroke="#9DB3C8" stroke-width="1.6" stroke-linecap="round"/><polyline points="269.0,276.7 274,268.0 264.1,269.5" fill="none" stroke="#9DB3C8" stroke-width="1.6" stroke-linecap="round" stroke-linejoin="round"/><rect x="280" y="257.0" width="684" height="22.0" rx="8" fill="#0C1E2E" stroke="#26455F" stroke-width="1.5"/><line x1="306" y1="264.0" x2="306" y2="272.0" stroke="#26455F" stroke-width="1" stroke-linecap="round"/><text x="293.0" y="272.0" font-family="'DejaVu Sans Mono', Consolas, monospace" font-size="9" fill="#6E869C" font-weight="700" text-anchor="middle">1</text><rect x="315" y="267.0" width="18" height="6" rx="2" fill="#3E5A74"/><rect x="339" y="267.0" width="24" height="6" rx="2" fill="#3E5A74"/><rect x="369" y="267.0" width="12" height="6" rx="2" fill="#3E5A74"/><rect x="387" y="267.0" width="18" height="6" rx="2" fill="#3E5A74"/><circle cx="978" cy="268.0" r="5" fill="#9DB3C8"/><text x="990" y="273.0" font-family="Arial, 'Helvetica Neue', Helvetica, sans-serif" font-size="12" fill="#9DB3C8" font-weight="800" text-anchor="start">No highlight</text><line x1="230" y1="298.0" x2="274" y2="298.0" stroke="#9DB3C8" stroke-width="1.6" stroke-linecap="round"/><polyline points="265.0,302.3 274,298.0 265.0,293.7" fill="none" stroke="#9DB3C8" stroke-width="1.6" stroke-linecap="round" stroke-linejoin="round"/><rect x="280" y="287.0" width="684" height="22.0" rx="8" fill="#0C1E2E" stroke="#26455F" stroke-width="1.5"/><line x1="306" y1="294.0" x2="306" y2="302.0" stroke="#26455F" stroke-width="1" stroke-linecap="round"/><text x="293.0" y="302.0" font-family="'DejaVu Sans Mono', Consolas, monospace" font-size="9" fill="#6E869C" font-weight="700" text-anchor="middle">1</text><rect x="315" y="297.0" width="18" height="6" rx="2" fill="#3E5A74"/><rect x="337" y="294.0" width="28" height="12" rx="3" fill="#F2C14E" opacity="0.3"/><rect x="339" y="297.0" width="24" height="6" rx="2" fill="#F2C14E"/><rect x="369" y="297.0" width="12" height="6" rx="2" fill="#3E5A74"/><rect x="387" y="297.0" width="18" height="6" rx="2" fill="#3E5A74"/><circle cx="978" cy="298.0" r="5" fill="#F2C14E"/><text x="990" y="303.0" font-family="Arial, 'Helvetica Neue', Helvetica, sans-serif" font-size="12" fill="#F2C14E" font-weight="800" text-anchor="start">Generation-probability</text><line x1="230" y1="298.0" x2="274" y2="328.0" stroke="#9DB3C8" stroke-width="1.6" stroke-linecap="round"/><polyline points="264.1,326.5 274,328.0 269.0,319.3" fill="none" stroke="#9DB3C8" stroke-width="1.6" stroke-linecap="round" stroke-linejoin="round"/><rect x="280" y="317.0" width="684" height="22.0" rx="8" fill="#0C1E2E" stroke="#26455F" stroke-width="1.5"/><line x1="306" y1="324.0" x2="306" y2="332.0" stroke="#26455F" stroke-width="1" stroke-linecap="round"/><text x="293.0" y="332.0" font-family="'DejaVu Sans Mono', Consolas, monospace" font-size="9" fill="#6E869C" font-weight="700" text-anchor="middle">1</text><rect x="315" y="327.0" width="18" height="6" rx="2" fill="#3E5A74"/><rect x="337" y="324.0" width="28" height="12" rx="3" fill="#48C78E" opacity="0.3"/><rect x="339" y="327.0" width="24" height="6" rx="2" fill="#48C78E"/><rect x="369" y="327.0" width="12" height="6" rx="2" fill="#3E5A74"/><rect x="387" y="327.0" width="18" height="6" rx="2" fill="#3E5A74"/><circle cx="978" cy="328.0" r="5" fill="#48C78E"/><text x="990" y="333.0" font-family="Arial, 'Helvetica Neue', Helvetica, sans-serif" font-size="12" fill="#48C78E" font-weight="800" text-anchor="start">Edit model</text></g><g id="cue_s05_c2_generation_probability_tool_highligh"><title>generation-probability tool highlighted tokens least confident seventy-one percent threshold</title><rect x="64" y="366" width="378" height="184" rx="14" fill="#2A2417" stroke="#F2C14E" stroke-width="1.5"/><rect x="64" y="366" width="6" height="184" rx="6" fill="#F2C14E"/><text x="92" y="402" font-family="Arial, 'Helvetica Neue', Helvetica, sans-serif" font-size="15.5" fill="#F2C14E" font-weight="800" text-anchor="start">Generation-probability tool</text><text x="92" y="430" font-family="Arial, 'Helvetica Neue', Helvetica, sans-serif" font-size="13.5" fill="#EAF2FB" font-weight="400" text-anchor="start">Highlights the tokens the model was least</text><text x="92" y="449" font-family="Arial, 'Helvetica Neue', Helvetica, sans-serif" font-size="13.5" fill="#EAF2FB" font-weight="400" text-anchor="start">confident in.</text><rect x="92" y="470" width="140" height="64" rx="12" fill="#16324A" stroke="#26455F" stroke-width="1.5"/><text x="162.0" y="503.28" font-family="Arial, 'Helvetica Neue', Helvetica, sans-serif" font-size="21.76" fill="#F2C14E" font-weight="800" text-anchor="middle">71%</text><text x="162.0" y="521.2" font-family="Arial, 'Helvetica Neue', Helvetica, sans-serif" font-size="12.5" fill="#9DB3C8" font-weight="600" text-anchor="middle">confidence thr.</text><rect x="248" y="470" width="180" height="64" rx="8" fill="#0C1E2E" stroke="#26455F" stroke-width="1.5"/><line x1="274" y1="477" x2="274" y2="527" stroke="#26455F" stroke-width="1" stroke-linecap="round"/><text x="261.0" y="494.0" font-family="'DejaVu Sans Mono', Consolas, monospace" font-size="9" fill="#6E869C" font-weight="700" text-anchor="middle">1</text><rect x="283" y="489.0" width="14" height="6" rx="2" fill="#3E5A74"/><rect x="301" y="486.0" width="32" height="12" rx="3" fill="#F2C14E" opacity="0.3"/><rect x="303" y="489.0" width="28" height="6" rx="2" fill="#F2C14E"/><rect x="337" y="489.0" width="14" height="6" rx="2" fill="#3E5A74"/><text x="261.0" y="518.0" font-family="'DejaVu Sans Mono', Consolas, monospace" font-size="9" fill="#6E869C" font-weight="700" text-anchor="middle">2</text><rect x="283" y="513.0" width="21" height="6" rx="2" fill="#3E5A74"/><rect x="308" y="510.0" width="18" height="12" rx="3" fill="#F2C14E" opacity="0.3"/><rect x="310" y="513.0" width="14" height="6" rx="2" fill="#F2C14E"/><rect x="330" y="513.0" width="21" height="6" rx="2" fill="#3E5A74"/></g><g id="cue_s05_c3_edit_model_tool_highlighted_tokens_m"><title>edit-model tool highlighted tokens most likely edited sixty-six percent threshold</title><rect x="458" y="366" width="378" height="184" rx="14" fill="#0F2E2B" stroke="#48C78E" stroke-width="1.5"/><rect x="458" y="366" width="6" height="184" rx="6" fill="#48C78E"/><text x="486" y="402" font-family="Arial, 'Helvetica Neue', Helvetica, sans-serif" font-size="15.5" fill="#48C78E" font-weight="800" text-anchor="start">Edit-model tool</text><text x="486" y="430" font-family="Arial, 'Helvetica Neue', Helvetica, sans-serif" font-size="13.5" fill="#EAF2FB" font-weight="400" text-anchor="start">Highlights tokens most likely to be edited;</text><text x="486" y="449" font-family="Arial, 'Helvetica Neue', Helvetica, sans-serif" font-size="13.5" fill="#EAF2FB" font-weight="400" text-anchor="start">trained on 9 coders.</text><rect x="486" y="470" width="140" height="64" rx="12" fill="#16324A" stroke="#26455F" stroke-width="1.5"/><text x="556.0" y="503.28" font-family="Arial, 'Helvetica Neue', Helvetica, sans-serif" font-size="21.76" fill="#48C78E" font-weight="800" text-anchor="middle">66%</text><text x="556.0" y="521.2" font-family="Arial, 'Helvetica Neue', Helvetica, sans-serif" font-size="12.5" fill="#9DB3C8" font-weight="600" text-anchor="middle">edit thr.</text><rect x="642" y="470" width="180" height="64" rx="8" fill="#0C1E2E" stroke="#26455F" stroke-width="1.5"/><line x1="668" y1="477" x2="668" y2="527" stroke="#26455F" stroke-width="1" stroke-linecap="round"/><text x="655.0" y="494.0" font-family="'DejaVu Sans Mono', Consolas, monospace" font-size="9" fill="#6E869C" font-weight="700" text-anchor="middle">1</text><rect x="677" y="489.0" width="21" height="6" rx="2" fill="#3E5A74"/><rect x="702" y="486.0" width="25" height="12" rx="3" fill="#48C78E" opacity="0.3"/><rect x="704" y="489.0" width="21" height="6" rx="2" fill="#48C78E"/><rect x="731" y="489.0" width="14" height="6" rx="2" fill="#3E5A74"/><text x="655.0" y="518.0" font-family="'DejaVu Sans Mono', Consolas, monospace" font-size="9" fill="#6E869C" font-weight="700" text-anchor="middle">2</text><rect x="677" y="513.0" width="14" height="6" rx="2" fill="#3E5A74"/><rect x="695" y="510.0" width="32" height="12" rx="3" fill="#48C78E" opacity="0.3"/><rect x="697" y="513.0" width="28" height="6" rx="2" fill="#48C78E"/><rect x="731" y="513.0" width="14" height="6" rx="2" fill="#3E5A74"/></g><g id="cue_s05_c4_crucially_thresholds_chosen_every_co"><title>crucially thresholds chosen every condition showed same total number highlights</title><rect x="852" y="366" width="364" height="184" rx="14" fill="#12293D" stroke="#26455F" stroke-width="1.5"/><rect x="852" y="366" width="6" height="184" rx="6" fill="#34D3C0"/><text x="880" y="402" font-family="Arial, 'Helvetica Neue', Helvetica, sans-serif" font-size="15.5" fill="#34D3C0" font-weight="800" text-anchor="start">Same count of highlights</text><text x="880" y="430" font-family="Arial, 'Helvetica Neue', Helvetica, sans-serif" font-size="13.5" fill="#9DB3C8" font-weight="400" text-anchor="start">Thresholds are chosen so every condition</text><text x="880" y="449" font-family="Arial, 'Helvetica Neue', Helvetica, sans-serif" font-size="13.5" fill="#9DB3C8" font-weight="400" text-anchor="start">shows the same total number of highlights.</text><text x="880" y="508" font-family="'DejaVu Sans Mono', Consolas, monospace" font-size="12.8" fill="#34D3C0" font-weight="800" text-anchor="start">which tokens, not how many</text></g></svg>